<?xml version="1.0" encoding="utf-8"?>
<!-- Generator: Adobe Illustrator 23.1.0, SVG Export Plug-In . SVG Version: 6.00 Build 0)  -->
<svg version="1.1" id="pause_icon" xmlns="http://www.w3.org/2000/svg" xmlns:xlink="http://www.w3.org/1999/xlink" x="0px" y="0px"
	 viewBox="0 0 50 50" style="enable-background:new 0 0 50 50;" xml:space="preserve">
<style type="text/css">
	.st0{fill:#3598DB;}
	.st1{fill:#FFFFFF;}
</style>
<title>Ресурс 6</title>
<circle class="st0" cx="25" cy="25" r="25"/>
<path class="st1" d="M22.2,33.1h-1.9c-1,0-1.9-0.1-1.9-0.8V17.7c0-0.7,0.8-0.8,1.9-0.8h1.9c1,0,1.9,0.1,1.9,0.8v14.6
	C24.1,33,23.2,33.1,22.2,33.1z"/>
<path class="st1" d="M29.6,33.1h-1.9c-1,0-1.9-0.1-1.9-0.8V17.7c0-0.7,0.8-0.8,1.9-0.8h1.9c1,0,1.9,0.1,1.9,0.8v14.6
	C31.5,33,30.7,33.1,29.6,33.1z"/>
</svg>
